<svg width="20" height="18" viewBox="0 0 20 18" fill="none" xmlns="http://www.w3.org/2000/svg">
<path d="M9.5716 0.711861C9.76593 0.388951 10.2341 0.388951 10.4284 0.711861L13.1824 5.28801C13.2522 5.40402 13.3661 5.48675 13.498 5.5173L18.7012 6.72237C19.0683 6.8074 19.213 7.25264 18.9659 7.53724L15.4648 11.5705C15.376 11.6728 15.3325 11.8066 15.3442 11.9415L15.806 17.2625C15.8386 17.6379 15.4599 17.9131 15.1128 17.7661L10.195 15.6826C10.0704 15.6298 9.92962 15.6298 9.80496 15.6826L4.88716 17.7661C4.54014 17.9131 4.1614 17.6379 4.19398 17.2625L4.65577 11.9415C4.66748 11.8066 4.62398 11.6728 4.53522 11.5705L1.03407 7.53724C0.787017 7.25264 0.931682 6.8074 1.29884 6.72237L6.50204 5.5173C6.63394 5.48675 6.74781 5.40402 6.81763 5.28801L9.5716 0.711861Z" fill="#FFC000"/>
</svg>
